<svg width="705" height="755" viewBox="0 0 705 755" fill="none" xmlns="http://www.w3.org/2000/svg">
<path d="M590.352 610.297L589.718 610.855C565.741 632.388 545.73 632.373 545.73 632.373C545.73 632.373 544.855 611.928 568.998 589.323L570.084 588.311C595.343 565.314 610.046 560.452 616.832 567.926C623.618 575.401 607.468 594.714 590.352 610.297Z" fill="#9AB3DA"/>
<path d="M589.718 610.855C565.741 632.388 545.73 632.373 545.73 632.373C545.73 632.373 544.855 611.927 568.999 589.323C568.908 596.269 576.75 600.255 597.304 585.427C597.304 585.412 574.216 611.263 589.718 610.855Z" fill="#A5CEFF"/>
<path d="M549.545 629.67C549.393 629.671 549.243 629.626 549.117 629.54C548.99 629.455 548.893 629.333 548.837 629.19C548.782 629.048 548.771 628.892 548.806 628.743C548.84 628.594 548.92 628.459 549.033 628.357L611.026 571.928C611.176 571.808 611.367 571.749 611.558 571.764C611.75 571.779 611.928 571.867 612.057 572.01C612.186 572.153 612.256 572.339 612.252 572.532C612.249 572.724 612.171 572.908 612.037 573.045L550.043 629.474C549.907 629.598 549.73 629.668 549.545 629.67Z" fill="#404B7C"/>
<path d="M592.327 587.617C592.146 587.934 591.965 588.251 591.769 588.568C570.657 624.657 546.016 632.569 546.016 632.569C546.016 632.569 536.833 607.685 557.673 570.221C557.975 569.663 558.307 569.104 558.623 568.545C580.685 530.146 596.881 518.293 608.237 524.831C619.592 531.369 607.272 561.599 592.327 587.617Z" fill="#A5CEFF"/>
<path d="M591.769 588.568C570.657 624.657 546.016 632.569 546.016 632.569C546.016 632.569 536.833 607.684 557.673 570.221C560.312 578.828 571.562 580.625 591.06 554.17C591.06 554.17 572.814 595.227 591.769 588.568Z" fill="#9AB3DA"/>
<path d="M549.364 627.511C549.232 627.51 549.103 627.474 548.989 627.408C548.875 627.341 548.78 627.246 548.715 627.131C548.649 627.016 548.615 626.887 548.615 626.754C548.615 626.622 548.65 626.492 548.716 626.378L602.853 532.139C602.953 531.965 603.118 531.837 603.312 531.785C603.505 531.733 603.712 531.759 603.886 531.86C604.06 531.96 604.187 532.125 604.239 532.319C604.292 532.513 604.265 532.72 604.165 532.894L550.028 627.133C549.961 627.249 549.864 627.346 549.747 627.412C549.631 627.478 549.498 627.512 549.364 627.511Z" fill="#404B7C"/>
<path d="M494.624 609.572L495.363 610.176C523.517 633.43 546.153 632.478 546.153 632.478C546.153 632.478 546.153 609.285 517.817 584.823L516.535 583.736C486.873 558.881 469.999 554.049 462.655 562.852C455.311 571.656 474.583 592.735 494.624 609.572Z" fill="#9AB3DA"/>
<path d="M495.423 610.191C523.577 633.445 546.212 632.494 546.212 632.494C546.212 632.494 546.212 609.3 517.877 584.838C518.299 592.705 509.613 597.567 485.651 581.818C485.576 581.743 512.976 609.934 495.423 610.191Z" fill="#A5CEFF"/>
<path d="M541.719 629.473C541.542 629.471 541.371 629.407 541.236 629.292L468.445 568.303C468.369 568.24 468.306 568.162 468.26 568.074C468.214 567.986 468.185 567.89 468.176 567.791C468.167 567.692 468.177 567.593 468.207 567.498C468.236 567.403 468.284 567.315 468.347 567.239C468.411 567.162 468.488 567.099 468.576 567.053C468.664 567.007 468.76 566.978 468.858 566.969C468.957 566.96 469.057 566.97 469.151 567C469.246 567.029 469.334 567.077 469.41 567.14L542.217 628.16C542.329 628.262 542.408 628.395 542.443 628.542C542.478 628.69 542.468 628.844 542.415 628.986C542.361 629.128 542.266 629.25 542.142 629.337C542.018 629.424 541.87 629.471 541.719 629.473Z" fill="#404B7C"/>
<path d="M492.498 580.927C492.709 581.305 492.92 581.667 493.131 582.015C517.395 623.63 545.821 632.69 545.821 632.69C545.821 632.69 556.377 604 532.399 560.89C532.037 560.24 531.676 559.606 531.314 558.957C505.919 514.744 487.25 501.094 474.176 508.629C461.101 516.163 475.291 550.969 492.498 580.927Z" fill="#A5CEFF"/>
<path d="M493.116 582.015C517.395 623.63 545.82 632.69 545.82 632.69C545.82 632.69 556.376 604 532.399 560.89C529.383 570.81 516.414 572.879 493.96 542.407C493.96 542.422 514.967 589.7 493.116 582.015Z" fill="#9AB3DA"/>
<path d="M541.975 626.756C541.844 626.755 541.714 626.72 541.601 626.653C541.487 626.587 541.393 626.492 541.327 626.378L478.986 517.93C478.936 517.844 478.904 517.749 478.892 517.65C478.879 517.551 478.886 517.451 478.911 517.355C478.937 517.259 478.982 517.169 479.043 517.09C479.103 517.011 479.179 516.945 479.265 516.896C479.351 516.846 479.446 516.814 479.545 516.801C479.643 516.788 479.743 516.795 479.839 516.821C479.935 516.847 480.025 516.892 480.104 516.952C480.182 517.013 480.248 517.089 480.298 517.175L542.624 625.684C542.676 625.796 542.699 625.919 542.693 626.043C542.686 626.167 542.649 626.287 542.585 626.393C542.521 626.499 542.431 626.587 542.325 626.65C542.219 626.714 542.099 626.75 541.975 626.756Z" fill="#404B7C"/>
<path d="M568.094 556.677C568.094 557.13 568.094 557.583 568.094 558.021C567.732 609.24 546.333 632.69 546.333 632.69C546.333 632.69 521.391 611.882 520.697 559.334C520.697 558.549 520.697 557.824 520.697 556.979C520.697 502.694 530.68 480.195 546.74 480.195C562.801 480.195 568.094 519.893 568.094 556.677Z" fill="#9AB3DA"/>
<path d="M568.079 558.02C567.732 609.24 546.333 632.69 546.333 632.69C546.333 632.69 521.391 611.882 520.697 559.334C528.765 566.884 541.809 561.886 546.333 521.871C546.333 521.931 552.018 576.699 568.079 558.02Z" fill="#A5CEFF"/>
<path d="M546.333 625.291C546.133 625.291 545.941 625.211 545.8 625.07C545.659 624.928 545.579 624.736 545.579 624.536V491.324C545.579 491.124 545.659 490.932 545.8 490.79C545.941 490.648 546.133 490.569 546.333 490.569C546.533 490.569 546.725 490.648 546.866 490.79C547.008 490.932 547.087 491.124 547.087 491.324V624.536C547.087 624.736 547.008 624.928 546.866 625.07C546.725 625.211 546.533 625.291 546.333 625.291Z" fill="#404B7C"/>
<path d="M567.596 707.389H517.953C513.991 707.388 510.183 705.849 507.332 703.094C504.48 700.34 502.806 696.586 502.662 692.622L500.52 632.494C500.496 631.786 500.614 631.082 500.868 630.421C501.121 629.761 501.505 629.158 501.996 628.649C502.487 628.141 503.076 627.736 503.726 627.46C504.377 627.184 505.076 627.042 505.783 627.042H579.765C580.472 627.042 581.172 627.184 581.822 627.46C582.473 627.736 583.061 628.141 583.552 628.649C584.044 629.158 584.427 629.761 584.681 630.421C584.935 631.082 585.053 631.786 585.028 632.494L582.887 692.622C582.743 696.586 581.069 700.34 578.217 703.094C575.365 705.849 571.558 707.388 567.596 707.389V707.389Z" fill="#E5231B"/>
<path d="M579.766 627.043H565.274C564.158 631.905 564.49 638.911 573.99 642.218C577.409 643.468 581.115 643.709 584.667 642.912L585.044 632.494C585.068 631.785 584.949 631.079 584.695 630.418C584.44 629.756 584.055 629.153 583.562 628.644C583.07 628.135 582.479 627.731 581.827 627.456C581.175 627.181 580.474 627.04 579.766 627.043Z" fill="#ECBDBB"/>
<path d="M547.585 646.506C545.655 639.666 549.304 631.829 552.199 627.042H536.29C527.121 642.414 532.671 670.349 557.583 664.37C569.918 661.35 578.333 662.98 583.852 665.608L584.275 653.528C569.903 644.558 550.42 656.321 547.585 646.506Z" fill="#ECBDBB"/>
<path d="M580.58 700.141C568.516 673.46 546.725 699.628 532.429 671.678C522.642 652.546 509.538 652.516 501.319 655.068L501.787 668.22C527.332 658.224 526.216 700.021 547.947 696.744C559.558 694.992 566.148 701.168 569.767 707.314C571.985 706.986 574.103 706.173 575.972 704.934C577.84 703.694 579.414 702.058 580.58 700.141V700.141Z" fill="#ECBDBB"/>
<path d="M513.353 682.399C506.763 684.045 512.991 698.828 518.707 694.902C524.422 690.976 518.345 681.146 513.353 682.399Z" fill="#ECBDBB"/>
<path d="M568.35 672.282C563.826 674.985 571.743 684.543 575.106 680.361C578.469 676.178 571.773 670.244 568.35 672.282Z" fill="#ECBDBB"/>
<path d="M570.537 86.1455H248.579V383.238H570.537V86.1455Z" fill="#9AB3DA"/>
<path d="M571.11 86.1455H248.006C245.615 86.1455 243.678 88.0858 243.678 90.4792V90.4943C243.678 92.8878 245.615 94.828 248.006 94.828H571.11C573.5 94.828 575.438 92.8878 575.438 90.4943V90.4792C575.438 88.0858 573.5 86.1455 571.11 86.1455Z" fill="#404B7C"/>
<path d="M451.601 94.8283H367.53C366.961 94.8283 366.398 94.7162 365.873 94.4984C365.348 94.2806 364.871 93.9614 364.469 93.559C364.067 93.1566 363.749 92.6788 363.531 92.153C363.314 91.6273 363.202 91.0637 363.202 90.4946V79.532L374.331 68.4033H444.86L455.989 79.5471V90.4946C455.989 91.0688 455.875 91.6374 455.654 92.1671C455.433 92.6969 455.108 93.1773 454.7 93.5806C454.292 93.9838 453.807 94.3017 453.275 94.5159C452.743 94.7301 452.174 94.8363 451.601 94.8283V94.8283Z" fill="#A5CEFF"/>
<path d="M381.569 86.9007C383.86 86.9007 385.716 85.0416 385.716 82.7482C385.716 80.4548 383.86 78.5957 381.569 78.5957C379.279 78.5957 377.422 80.4548 377.422 82.7482C377.422 85.0416 379.279 86.9007 381.569 86.9007Z" fill="white"/>
<path d="M437.561 86.9007C439.851 86.9007 441.708 85.0416 441.708 82.7482C441.708 80.4548 439.851 78.5957 437.561 78.5957C435.271 78.5957 433.414 80.4548 433.414 82.7482C433.414 85.0416 435.271 86.9007 437.561 86.9007Z" fill="white"/>
<path d="M571.11 374.556H248.006C245.615 374.556 243.678 376.496 243.678 378.889V378.904C243.678 381.298 245.615 383.238 248.006 383.238H571.11C573.5 383.238 575.438 381.298 575.438 378.904V378.889C575.438 376.496 573.5 374.556 571.11 374.556Z" fill="#404B7C"/>
<path d="M530.575 117.478H288.556C285.233 117.478 282.539 120.175 282.539 123.503V345.881C282.539 349.208 285.233 351.906 288.556 351.906H530.575C533.898 351.906 536.592 349.208 536.592 345.881V123.503C536.592 120.175 533.898 117.478 530.575 117.478Z" fill="#A5CEFF"/>
<path d="M345.091 347.3C344.891 347.3 344.699 347.221 344.558 347.079C344.416 346.937 344.337 346.745 344.337 346.545V120.498C344.337 120.298 344.416 120.106 344.558 119.964C344.699 119.823 344.891 119.743 345.091 119.743C345.291 119.743 345.483 119.823 345.624 119.964C345.765 120.106 345.845 120.298 345.845 120.498V346.621C345.826 346.807 345.738 346.981 345.599 347.106C345.46 347.232 345.278 347.301 345.091 347.3Z" fill="#404B7C"/>
<path d="M409.558 347.3C409.358 347.3 409.166 347.221 409.025 347.079C408.883 346.937 408.804 346.745 408.804 346.545V120.498C408.804 120.298 408.883 120.106 409.025 119.964C409.166 119.823 409.358 119.743 409.558 119.743C409.758 119.743 409.949 119.823 410.091 119.964C410.232 120.106 410.312 120.298 410.312 120.498V346.621C410.293 346.807 410.205 346.981 410.066 347.106C409.926 347.232 409.745 347.301 409.558 347.3Z" fill="#404B7C"/>
<path d="M474.025 347.3C473.825 347.3 473.633 347.221 473.491 347.079C473.35 346.937 473.271 346.745 473.271 346.545V120.498C473.271 120.298 473.35 120.106 473.491 119.964C473.633 119.823 473.825 119.743 474.025 119.743C474.224 119.743 474.416 119.823 474.558 119.964C474.699 120.106 474.779 120.298 474.779 120.498V346.621C474.76 346.807 474.672 346.981 474.533 347.106C474.393 347.232 474.212 347.301 474.025 347.3Z" fill="#404B7C"/>
<path d="M330.84 143.148H296.095C294.255 143.148 292.763 144.642 292.763 146.485C292.763 148.328 294.255 149.822 296.095 149.822H330.84C332.68 149.822 334.172 148.328 334.172 146.485C334.172 144.642 332.68 143.148 330.84 143.148Z" fill="#9AB3DA"/>
<path d="M330.84 159.124H296.095C294.255 159.124 292.763 160.618 292.763 162.461C292.763 164.304 294.255 165.798 296.095 165.798H330.84C332.68 165.798 334.172 164.304 334.172 162.461C334.172 160.618 332.68 159.124 330.84 159.124Z" fill="#9AB3DA"/>
<path d="M330.84 175.115H296.095C294.255 175.115 292.763 176.609 292.763 178.452C292.763 180.295 294.255 181.789 296.095 181.789H330.84C332.68 181.789 334.172 180.295 334.172 178.452C334.172 176.609 332.68 175.115 330.84 175.115Z" fill="#9AB3DA"/>
<path d="M389.501 227.331H354.757C352.916 227.331 351.424 228.825 351.424 230.668C351.424 232.511 352.916 234.005 354.757 234.005H389.501C391.342 234.005 392.834 232.511 392.834 230.668C392.834 228.825 391.342 227.331 389.501 227.331Z" fill="white"/>
<path d="M389.501 243.306H354.757C352.916 243.306 351.424 244.8 351.424 246.643C351.424 248.486 352.916 249.98 354.757 249.98H389.501C391.342 249.98 392.834 248.486 392.834 246.643C392.834 244.8 391.342 243.306 389.501 243.306Z" fill="white"/>
<path d="M373.894 259.297H354.757C352.916 259.297 351.424 260.791 351.424 262.634C351.424 264.477 352.916 265.972 354.757 265.972H373.894C375.734 265.972 377.226 264.477 377.226 262.634C377.226 260.791 375.734 259.297 373.894 259.297Z" fill="white"/>
<path d="M523.336 293.771H488.592C486.751 293.771 485.259 295.265 485.259 297.108C485.259 298.951 486.751 300.445 488.592 300.445H523.336C525.177 300.445 526.669 298.951 526.669 297.108C526.669 295.265 525.177 293.771 523.336 293.771Z" fill="#E5231B"/>
<path d="M523.336 309.746H488.592C486.751 309.746 485.259 311.24 485.259 313.083C485.259 314.926 486.751 316.42 488.592 316.42H523.336C525.177 316.42 526.669 314.926 526.669 313.083C526.669 311.24 525.177 309.746 523.336 309.746Z" fill="#E5231B"/>
<path d="M507.729 325.737H488.592C486.751 325.737 485.259 327.231 485.259 329.074C485.259 330.917 486.751 332.412 488.592 332.412H507.729C509.569 332.412 511.061 330.917 511.061 329.074C511.061 327.231 509.569 325.737 507.729 325.737Z" fill="#E5231B"/>
<path d="M386.998 200.151C397.554 186.561 396.302 161.268 396.302 161.268H360.759C360.759 161.268 362.011 186.561 351.455 200.151H386.998Z" fill="#9AB3DA"/>
<path d="M378.915 165.798C382.663 165.798 385.701 162.756 385.701 159.003C385.701 155.25 382.663 152.208 378.915 152.208C375.168 152.208 372.129 155.25 372.129 159.003C372.129 162.756 375.168 165.798 378.915 165.798Z" fill="#404B7C"/>
<path d="M448.69 275.273C459.246 261.683 457.995 236.391 457.995 236.391H422.451C422.451 236.391 423.748 261.683 413.192 275.273H448.735H448.69Z" fill="#E5231B"/>
<path d="M440.608 240.921C444.356 240.921 447.394 237.878 447.394 234.126C447.394 230.373 444.356 227.331 440.608 227.331C436.86 227.331 433.822 230.373 433.822 234.126C433.822 237.878 436.86 240.921 440.608 240.921Z" fill="#404B7C"/>
<path d="M483.239 179.071L517.923 170.766C518.844 170.544 519.815 170.689 520.631 171.171C521.447 171.652 522.044 172.433 522.296 173.348L533.395 213.665C533.526 214.138 533.56 214.633 533.496 215.119C533.432 215.606 533.27 216.075 533.021 216.497C532.772 216.92 532.44 217.289 532.046 217.58C531.651 217.872 531.202 218.081 530.726 218.195L496.042 226.5C495.121 226.722 494.149 226.577 493.333 226.095C492.517 225.613 491.92 224.832 491.668 223.918L480.57 183.601C480.439 183.128 480.404 182.633 480.468 182.146C480.533 181.66 480.694 181.191 480.943 180.768C481.192 180.345 481.524 179.977 481.918 179.685C482.313 179.394 482.762 179.185 483.239 179.071V179.071Z" fill="#9AB3DA"/>
<path d="M489.874 192.026C489.674 192.05 489.473 191.994 489.314 191.869C489.156 191.745 489.053 191.562 489.029 191.362C489.005 191.162 489.062 190.96 489.186 190.802C489.311 190.643 489.493 190.54 489.693 190.516L518.812 183.54C519.012 183.494 519.222 183.53 519.396 183.639C519.57 183.748 519.694 183.921 519.74 184.122C519.786 184.322 519.75 184.532 519.641 184.706C519.533 184.88 519.359 185.004 519.159 185.05L490.1 192.011H489.919L489.874 192.026Z" fill="#404B7C"/>
<path d="M492.392 200.83C492.192 200.854 491.991 200.798 491.833 200.673C491.674 200.549 491.572 200.366 491.548 200.166C491.524 199.966 491.58 199.764 491.705 199.605C491.829 199.447 492.011 199.344 492.211 199.32L521.331 192.344C521.43 192.321 521.532 192.318 521.633 192.335C521.733 192.352 521.829 192.388 521.915 192.442C522.001 192.496 522.075 192.567 522.134 192.65C522.193 192.732 522.235 192.826 522.258 192.925C522.281 193.024 522.284 193.127 522.267 193.227C522.25 193.328 522.214 193.424 522.16 193.51C522.106 193.596 522.036 193.671 521.953 193.73C521.87 193.789 521.777 193.831 521.678 193.854L492.573 200.83H492.392Z" fill="#404B7C"/>
<path d="M494.91 209.648C494.71 209.672 494.509 209.616 494.351 209.491C494.192 209.366 494.09 209.184 494.066 208.984C494.042 208.784 494.098 208.582 494.223 208.423C494.347 208.265 494.53 208.162 494.729 208.138L512.645 203.85C512.845 203.804 513.055 203.839 513.229 203.948C513.402 204.057 513.526 204.231 513.572 204.431C513.618 204.631 513.583 204.842 513.474 205.016C513.365 205.19 513.191 205.314 512.991 205.36L495.091 209.648H494.91Z" fill="#404B7C"/>
<path d="M500.988 180.46C504.735 180.46 507.774 177.418 507.774 173.665C507.774 169.912 504.735 166.87 500.988 166.87C497.24 166.87 494.202 169.912 494.202 173.665C494.202 177.418 497.24 180.46 500.988 180.46Z" fill="#404B7C"/>
<path d="M337.249 297.606L302.565 289.301C301.644 289.079 300.673 289.224 299.857 289.706C299.041 290.188 298.444 290.968 298.192 291.883L287.169 332.2C287.038 332.673 287.003 333.168 287.068 333.654C287.132 334.141 287.293 334.61 287.542 335.033C287.792 335.455 288.123 335.824 288.518 336.115C288.912 336.407 289.361 336.616 289.838 336.73L324.522 345.035C325.443 345.257 326.414 345.112 327.23 344.63C328.046 344.148 328.643 343.367 328.895 342.453L339.994 302.136C340.124 301.658 340.155 301.158 340.086 300.667C340.017 300.176 339.849 299.705 339.593 299.281C339.336 298.857 338.996 298.49 338.593 298.202C338.19 297.914 337.733 297.711 337.249 297.606V297.606Z" fill="#9AB3DA"/>
<path d="M330.599 310.562H330.418L301.299 303.51C301.099 303.464 300.925 303.34 300.816 303.166C300.707 302.992 300.672 302.782 300.718 302.582C300.764 302.381 300.887 302.208 301.061 302.099C301.235 301.989 301.445 301.954 301.645 302L330.765 308.991C330.973 309.014 331.164 309.117 331.295 309.28C331.427 309.443 331.488 309.651 331.466 309.86C331.444 310.068 331.34 310.259 331.178 310.391C331.015 310.522 330.807 310.584 330.599 310.562V310.562Z" fill="#404B7C"/>
<path d="M328.08 319.38H327.899L298.78 312.404C298.58 312.358 298.406 312.234 298.298 312.06C298.189 311.886 298.153 311.675 298.199 311.475C298.245 311.275 298.369 311.101 298.543 310.992C298.717 310.883 298.927 310.848 299.127 310.894L328.246 317.885C328.431 317.922 328.595 318.028 328.706 318.18C328.817 318.332 328.867 318.521 328.847 318.709C328.826 318.896 328.736 319.069 328.594 319.193C328.452 319.318 328.269 319.384 328.08 319.38V319.38Z" fill="#404B7C"/>
<path d="M325.577 328.183H325.396L307.496 323.895C307.296 323.849 307.123 323.725 307.014 323.551C306.905 323.377 306.87 323.167 306.916 322.966C306.962 322.766 307.085 322.592 307.259 322.483C307.433 322.374 307.643 322.339 307.843 322.385L325.728 326.688C325.911 326.726 326.074 326.83 326.185 326.981C326.296 327.131 326.347 327.318 326.328 327.504C326.309 327.691 326.222 327.863 326.083 327.989C325.945 328.114 325.764 328.184 325.577 328.183V328.183Z" fill="#404B7C"/>
<path d="M319.485 298.995C323.233 298.995 326.271 295.953 326.271 292.2C326.271 288.447 323.233 285.405 319.485 285.405C315.737 285.405 312.699 288.447 312.699 292.2C312.699 295.953 315.737 298.995 319.485 298.995Z" fill="#404B7C"/>
<path d="M499.163 252.744C501.52 252.744 503.431 250.831 503.431 248.471C503.431 246.11 501.52 244.197 499.163 244.197C496.806 244.197 494.896 246.11 494.896 248.471C494.896 250.831 496.806 252.744 499.163 252.744Z" fill="#404B7C"/>
<path d="M516.385 265.458C519.716 265.458 522.417 262.754 522.417 259.418C522.417 256.082 519.716 253.378 516.385 253.378C513.053 253.378 510.353 256.082 510.353 259.418C510.353 262.754 513.053 265.458 516.385 265.458Z" fill="#E5231B"/>
<path d="M373.652 319.818C383.18 319.818 390.903 312.084 390.903 302.543C390.903 293.003 383.18 285.269 373.652 285.269C364.124 285.269 356.4 293.003 356.4 302.543C356.4 312.084 364.124 319.818 373.652 319.818Z" fill="#E5231B"/>
<path d="M395.141 333.967C399.147 333.967 402.395 330.715 402.395 326.704C402.395 322.692 399.147 319.44 395.141 319.44C391.135 319.44 387.888 322.692 387.888 326.704C387.888 330.715 391.135 333.967 395.141 333.967Z" fill="#404B7C"/>
<path d="M442.598 159.034L447.68 169.332L459.035 170.978C459.545 171.056 460.024 171.276 460.416 171.612C460.809 171.949 461.099 172.388 461.256 172.88C461.413 173.373 461.429 173.9 461.303 174.401C461.177 174.903 460.914 175.359 460.543 175.719L452.4 183.752L454.345 195.062C454.433 195.573 454.376 196.099 454.181 196.579C453.986 197.059 453.66 197.475 453.241 197.78C452.823 198.085 452.327 198.266 451.81 198.304C451.294 198.341 450.777 198.233 450.319 197.992L440.17 192.646L430.021 197.992C429.563 198.233 429.046 198.341 428.53 198.304C428.013 198.266 427.517 198.085 427.098 197.78C426.679 197.475 426.354 197.059 426.159 196.579C425.964 196.099 425.907 195.573 425.995 195.062L427.94 183.752L419.721 175.734C419.35 175.374 419.087 174.918 418.961 174.416C418.835 173.915 418.852 173.388 419.008 172.896C419.165 172.403 419.456 171.964 419.848 171.628C420.241 171.291 420.719 171.071 421.229 170.993L432.585 169.347L437.667 159.049C437.899 158.595 438.251 158.214 438.685 157.947C439.119 157.681 439.618 157.539 440.128 157.537C440.637 157.536 441.137 157.674 441.572 157.938C442.008 158.202 442.363 158.581 442.598 159.034Z" fill="#E5231B"/>
<path d="M543.272 426.605C543.072 426.635 542.868 426.584 542.706 426.464C542.543 426.344 542.435 426.164 542.405 425.963C542.375 425.763 542.426 425.559 542.546 425.396C542.666 425.233 542.846 425.125 543.046 425.095C543.046 425.095 544.071 424.778 545.836 424.083C545.929 424.039 546.031 424.014 546.135 424.011C546.239 424.007 546.342 424.025 546.438 424.064C546.535 424.102 546.622 424.16 546.695 424.234C546.768 424.308 546.825 424.396 546.862 424.493C546.9 424.59 546.917 424.693 546.913 424.797C546.908 424.901 546.883 425.002 546.837 425.096C546.792 425.189 546.728 425.272 546.649 425.34C546.57 425.407 546.478 425.457 546.379 425.488C544.569 426.197 543.543 426.514 543.498 426.53L543.272 426.605Z" fill="#404B7C"/>
<path d="M553.24 422.438C553.04 422.482 552.831 422.444 552.658 422.334C552.486 422.224 552.364 422.049 552.32 421.849C552.276 421.649 552.314 421.439 552.424 421.266C552.534 421.093 552.708 420.972 552.908 420.928C555.201 419.825 557.432 418.602 559.77 417.319C559.856 417.263 559.953 417.226 560.054 417.21C560.155 417.194 560.259 417.198 560.358 417.223C560.458 417.248 560.551 417.293 560.632 417.355C560.714 417.417 560.782 417.495 560.832 417.585C560.883 417.674 560.914 417.773 560.925 417.875C560.936 417.977 560.926 418.08 560.896 418.178C560.865 418.276 560.815 418.367 560.749 418.445C560.682 418.523 560.601 418.587 560.509 418.632C558.217 419.931 555.879 421.169 553.557 422.287C553.465 422.361 553.356 422.413 553.24 422.438V422.438Z" fill="#404B7C"/>
<path d="M564.173 416.413C564.011 416.409 563.856 416.354 563.728 416.255C563.6 416.156 563.508 416.019 563.464 415.863C563.42 415.708 563.427 415.542 563.484 415.391C563.541 415.24 563.645 415.111 563.781 415.024C565.53 413.936 567.279 412.789 568.983 411.626C569.064 411.563 569.157 411.518 569.256 411.492C569.355 411.466 569.458 411.461 569.559 411.477C569.661 411.492 569.757 411.528 569.844 411.582C569.931 411.636 570.006 411.708 570.064 411.792C570.123 411.876 570.163 411.971 570.184 412.072C570.204 412.172 570.204 412.275 570.184 412.376C570.163 412.476 570.122 412.571 570.063 412.655C570.005 412.739 569.93 412.81 569.843 412.864C568.124 414.042 566.359 415.205 564.58 416.307C564.457 416.38 564.316 416.417 564.173 416.413ZM575.694 408.365C575.538 408.364 575.386 408.314 575.26 408.224C575.133 408.133 575.037 408.005 574.986 407.858C574.935 407.711 574.931 407.551 574.974 407.401C575.017 407.251 575.105 407.118 575.226 407.021C577.247 405.42 579.253 403.744 581.168 402.038C581.242 401.971 581.329 401.92 581.423 401.887C581.517 401.854 581.616 401.84 581.716 401.846C581.815 401.851 581.913 401.877 582.002 401.92C582.092 401.963 582.172 402.024 582.239 402.098C582.305 402.172 582.356 402.259 582.389 402.353C582.422 402.447 582.436 402.547 582.43 402.647C582.425 402.746 582.399 402.844 582.356 402.933C582.313 403.023 582.253 403.104 582.178 403.17C580.233 404.907 578.212 406.598 576.146 408.214C576.016 408.312 575.857 408.365 575.694 408.365ZM585.104 400.15C584.953 400.151 584.806 400.107 584.68 400.023C584.555 399.939 584.458 399.819 584.401 399.68C584.344 399.54 584.33 399.386 584.362 399.239C584.393 399.091 584.467 398.956 584.576 398.852C586.084 397.342 587.592 395.831 588.919 394.427C589.059 394.297 589.242 394.224 589.433 394.223C589.624 394.223 589.808 394.296 589.948 394.426C590.088 394.556 590.173 394.735 590.186 394.926C590.2 395.117 590.14 395.305 590.02 395.454C588.617 396.964 587.14 398.474 585.617 399.984C585.472 400.101 585.289 400.16 585.104 400.15ZM594.604 389.807C594.46 389.808 594.319 389.769 594.196 389.692C594.074 389.616 593.976 389.506 593.914 389.376C593.853 389.246 593.829 389.1 593.847 388.957C593.865 388.814 593.924 388.679 594.016 388.568C595.645 386.575 597.228 384.491 598.706 382.393C598.822 382.228 598.998 382.117 599.196 382.083C599.394 382.049 599.598 382.095 599.762 382.211C599.926 382.327 600.037 382.504 600.071 382.702C600.105 382.901 600.058 383.104 599.942 383.268C598.434 385.397 596.836 387.496 595.192 389.535C595.122 389.619 595.035 389.687 594.936 389.734C594.837 389.781 594.729 389.806 594.619 389.807H594.604ZM601.948 379.705C601.813 379.704 601.68 379.668 601.564 379.599C601.448 379.529 601.352 379.43 601.287 379.311C601.223 379.192 601.191 379.058 601.196 378.923C601.201 378.788 601.242 378.656 601.315 378.542C602.431 376.821 603.516 375.039 604.542 373.242C604.642 373.068 604.807 372.94 605.001 372.888C605.194 372.836 605.401 372.862 605.575 372.963C605.749 373.063 605.876 373.228 605.928 373.422C605.981 373.616 605.954 373.823 605.854 373.997C604.813 375.809 603.712 377.621 602.581 379.373C602.514 379.472 602.425 379.554 602.32 379.612C602.215 379.669 602.098 379.701 601.978 379.705H601.948ZM608.855 367.459C608.727 367.459 608.601 367.426 608.488 367.364C608.376 367.302 608.282 367.213 608.214 367.104C608.146 366.995 608.107 366.871 608.1 366.742C608.094 366.614 608.12 366.487 608.176 366.371C609.307 364.061 610.363 361.675 611.328 359.289C611.404 359.103 611.551 358.955 611.736 358.877C611.921 358.799 612.13 358.798 612.316 358.874C612.502 358.95 612.65 359.097 612.728 359.283C612.805 359.468 612.806 359.677 612.73 359.863C611.75 362.279 610.679 364.695 609.533 367.051C609.472 367.176 609.378 367.281 609.261 367.356C609.144 367.43 609.009 367.471 608.87 367.474L608.855 367.459ZM613.711 355.952C613.626 355.967 613.539 355.967 613.454 355.952C613.266 355.884 613.113 355.744 613.028 355.563C612.943 355.382 612.934 355.174 613.002 354.986C613.695 353.068 614.359 351.09 614.962 349.097C615.02 348.897 615.155 348.728 615.338 348.627C615.428 348.577 615.527 348.546 615.63 348.535C615.732 348.523 615.836 348.532 615.935 348.561C616.034 348.59 616.126 348.638 616.207 348.702C616.287 348.767 616.354 348.846 616.404 348.937C616.454 349.027 616.485 349.127 616.496 349.229C616.508 349.332 616.499 349.436 616.47 349.535C615.852 351.543 615.188 353.551 614.495 355.575C614.422 355.703 614.313 355.807 614.182 355.875C614.05 355.942 613.902 355.969 613.756 355.952H613.711ZM617.722 342.483H617.541C617.347 342.437 617.18 342.315 617.075 342.145C616.971 341.976 616.938 341.771 616.983 341.577C617.571 339.101 618.099 336.534 618.491 334.027C618.508 333.928 618.544 333.833 618.597 333.748C618.651 333.663 618.72 333.589 618.802 333.531C618.884 333.473 618.977 333.431 619.075 333.409C619.173 333.387 619.274 333.384 619.373 333.401C619.472 333.417 619.567 333.454 619.652 333.507C619.737 333.561 619.811 333.63 619.869 333.712C619.927 333.794 619.968 333.887 619.99 333.985C620.013 334.083 620.016 334.185 619.999 334.284C619.546 336.881 619.004 339.463 618.415 341.97C618.366 342.116 618.273 342.244 618.149 342.336C618.025 342.427 617.876 342.479 617.722 342.483V342.483ZM620.029 330.207H619.939C619.743 330.177 619.568 330.072 619.449 329.914C619.331 329.755 619.279 329.557 619.305 329.361C619.592 327.338 619.833 325.269 620.044 323.185C620.067 322.986 620.166 322.804 620.321 322.677C620.476 322.55 620.674 322.489 620.873 322.506C620.973 322.515 621.069 322.544 621.157 322.591C621.245 322.638 621.323 322.702 621.386 322.779C621.449 322.857 621.496 322.946 621.525 323.041C621.553 323.137 621.563 323.237 621.552 323.336C621.341 325.435 621.1 327.534 620.813 329.573C620.784 329.754 620.69 329.918 620.548 330.035C620.407 330.152 620.227 330.213 620.044 330.207H620.029ZM621.311 316.209C621.212 316.205 621.114 316.182 621.024 316.14C620.934 316.099 620.854 316.04 620.786 315.967C620.719 315.894 620.667 315.808 620.633 315.715C620.598 315.622 620.583 315.523 620.587 315.424C620.693 313.038 620.753 310.592 620.753 308.176V307.663C620.753 307.462 620.832 307.27 620.974 307.129C621.115 306.987 621.307 306.908 621.507 306.908C621.707 306.908 621.899 306.987 622.04 307.129C622.181 307.27 622.261 307.462 622.261 307.663V308.191C622.261 310.637 622.261 313.099 622.095 315.515C622.08 315.712 621.987 315.896 621.837 316.026C621.688 316.156 621.493 316.222 621.296 316.209H621.311ZM621.386 303.706C621.191 303.707 621.004 303.631 620.863 303.496C620.723 303.361 620.64 303.177 620.632 302.982C620.632 300.943 620.466 298.844 620.331 296.76C620.324 296.661 620.338 296.562 620.37 296.468C620.403 296.374 620.453 296.287 620.519 296.213C620.585 296.139 620.665 296.078 620.754 296.035C620.843 295.991 620.94 295.966 621.039 295.96C621.139 295.952 621.239 295.964 621.334 295.995C621.428 296.027 621.516 296.078 621.59 296.144C621.665 296.21 621.726 296.291 621.768 296.381C621.811 296.472 621.835 296.57 621.839 296.67C621.974 298.769 622.08 300.883 622.14 302.936C622.144 303.035 622.129 303.134 622.094 303.228C622.06 303.321 622.008 303.406 621.941 303.479C621.874 303.552 621.793 303.611 621.703 303.653C621.613 303.694 621.515 303.718 621.416 303.721V303.721L621.386 303.706ZM620.406 289.678C620.218 289.679 620.037 289.61 619.898 289.485C619.758 289.359 619.671 289.186 619.652 288.999C619.381 286.462 619.049 283.85 618.672 281.268C618.644 281.068 618.696 280.864 618.818 280.703C618.94 280.542 619.12 280.435 619.32 280.407C619.52 280.379 619.723 280.432 619.884 280.553C620.046 280.675 620.152 280.856 620.18 281.056C620.557 283.654 620.889 286.281 621.16 288.833C621.181 289.031 621.123 289.229 620.999 289.385C620.875 289.541 620.694 289.641 620.496 289.663H620.421L620.406 289.678ZM618.702 277.296C618.524 277.295 618.352 277.231 618.217 277.115C618.081 276.999 617.992 276.838 617.963 276.662C617.621 274.649 617.249 272.605 616.847 270.532C616.809 270.331 616.852 270.124 616.967 269.956C617.081 269.787 617.258 269.671 617.458 269.633C617.658 269.595 617.865 269.638 618.033 269.753C618.201 269.868 618.317 270.045 618.355 270.245C618.767 272.329 619.144 274.387 619.486 276.421C619.503 276.519 619.501 276.62 619.479 276.717C619.458 276.814 619.417 276.906 619.359 276.988C619.302 277.069 619.229 277.138 619.144 277.191C619.06 277.244 618.966 277.28 618.868 277.296H618.732H618.702ZM615.957 263.495C615.786 263.496 615.619 263.438 615.484 263.331C615.35 263.224 615.256 263.074 615.218 262.906C614.645 260.415 614.027 257.878 613.364 255.356C613.314 255.156 613.345 254.944 613.451 254.767C613.557 254.59 613.729 254.462 613.929 254.412C614.129 254.362 614.341 254.394 614.518 254.5C614.694 254.606 614.822 254.778 614.872 254.979C615.535 257.531 616.169 260.082 616.742 262.529C616.764 262.626 616.767 262.726 616.75 262.825C616.733 262.923 616.697 263.017 616.644 263.101C616.59 263.185 616.521 263.258 616.439 263.316C616.358 263.373 616.266 263.413 616.169 263.435H616.003L615.957 263.495Z" fill="#404B7C"/>
<path d="M612.882 251.324C612.716 251.323 612.556 251.268 612.425 251.167C612.295 251.066 612.201 250.925 612.158 250.765C611.886 249.759 611.61 248.792 611.328 247.866C611.291 247.741 611.287 247.609 611.316 247.482C611.345 247.355 611.406 247.238 611.494 247.141C611.494 247.141 612.218 246.341 613.409 244.876C613.467 244.788 613.543 244.714 613.632 244.657C613.721 244.6 613.821 244.562 613.925 244.547C614.029 244.531 614.136 244.537 614.238 244.565C614.339 244.593 614.434 244.642 614.516 244.709C614.597 244.776 614.664 244.859 614.711 244.953C614.759 245.047 614.786 245.151 614.791 245.256C614.796 245.361 614.779 245.467 614.741 245.565C614.703 245.664 614.645 245.753 614.57 245.828C613.786 246.794 613.198 247.474 612.882 247.836C613.123 248.672 613.359 249.507 613.59 250.343C613.618 250.439 613.626 250.539 613.614 250.639C613.602 250.738 613.571 250.834 613.522 250.921C613.473 251.008 613.407 251.085 613.328 251.146C613.249 251.208 613.159 251.253 613.062 251.279L612.882 251.324Z" fill="#404B7C"/>
<path d="M618.823 239.833C618.68 239.829 618.541 239.784 618.422 239.703C618.304 239.623 618.211 239.51 618.154 239.379C618.097 239.248 618.079 239.103 618.101 238.961C618.123 238.82 618.185 238.687 618.28 238.58C619.788 236.466 621.296 234.276 622.713 232.072C622.764 231.983 622.832 231.905 622.914 231.843C622.996 231.782 623.089 231.737 623.188 231.713C623.288 231.688 623.391 231.684 623.492 231.701C623.593 231.718 623.69 231.755 623.776 231.811C623.862 231.866 623.936 231.939 623.993 232.024C624.05 232.109 624.09 232.204 624.109 232.305C624.128 232.406 624.126 232.509 624.104 232.609C624.082 232.71 624.04 232.804 623.98 232.887C622.472 235.122 620.964 237.342 619.456 239.471C619.39 239.58 619.297 239.67 619.186 239.734C619.075 239.797 618.95 239.831 618.823 239.833V239.833Z" fill="#404B7C"/>
<path d="M625.82 229.263C625.686 229.264 625.554 229.229 625.437 229.162C625.321 229.094 625.225 228.997 625.159 228.88C625.093 228.763 625.059 228.631 625.061 228.496C625.064 228.362 625.102 228.23 625.171 228.116C626.257 226.319 627.313 224.477 628.308 222.649C628.404 222.473 628.566 222.342 628.758 222.286C628.951 222.229 629.157 222.251 629.333 222.347C629.509 222.444 629.64 222.606 629.697 222.798C629.753 222.991 629.731 223.198 629.635 223.374C628.625 225.232 627.554 227.089 626.468 228.901C626.401 229.012 626.305 229.104 626.192 229.168C626.078 229.231 625.95 229.264 625.82 229.263ZM632.561 216.7C632.456 216.723 632.348 216.723 632.244 216.7C632.153 216.658 632.072 216.598 632.005 216.524C631.937 216.451 631.885 216.364 631.852 216.27C631.818 216.176 631.803 216.076 631.809 215.976C631.814 215.876 631.839 215.778 631.882 215.688C633.013 213.287 634.069 210.871 635.034 208.471C635.07 208.378 635.125 208.294 635.194 208.223C635.263 208.152 635.345 208.095 635.436 208.056C635.527 208.017 635.625 207.996 635.724 207.994C635.823 207.993 635.922 208.011 636.014 208.048C636.106 208.084 636.19 208.139 636.261 208.208C636.332 208.277 636.389 208.36 636.428 208.451C636.467 208.542 636.488 208.64 636.49 208.739C636.491 208.839 636.473 208.937 636.436 209.029C635.471 211.445 634.4 213.907 633.254 216.338C633.18 216.461 633.073 216.56 632.945 216.624C632.817 216.689 632.673 216.715 632.53 216.7H632.561ZM637.401 204.998C637.28 204.998 637.161 204.968 637.054 204.912C636.946 204.856 636.854 204.775 636.784 204.676C636.715 204.577 636.67 204.462 636.654 204.342C636.638 204.222 636.651 204.1 636.692 203.986C637.401 201.993 638.05 199.969 638.623 197.946C638.679 197.746 638.812 197.576 638.993 197.474C639.174 197.372 639.388 197.346 639.588 197.402C639.788 197.458 639.957 197.592 640.059 197.773C640.161 197.954 640.187 198.168 640.131 198.369C639.543 200.377 638.879 202.415 638.17 204.409C638.131 204.587 638.028 204.745 637.881 204.853C637.734 204.962 637.553 205.013 637.371 204.998H637.401ZM641.277 191.287H641.126C641.029 191.267 640.937 191.228 640.855 191.173C640.773 191.117 640.702 191.046 640.648 190.963C640.593 190.881 640.555 190.788 640.536 190.691C640.518 190.593 640.518 190.493 640.538 190.396C641.081 187.799 641.518 185.186 641.82 182.65C641.85 182.452 641.954 182.273 642.111 182.15C642.267 182.026 642.465 181.968 642.664 181.985C642.763 181.996 642.86 182.027 642.947 182.076C643.034 182.125 643.111 182.19 643.173 182.269C643.234 182.348 643.28 182.438 643.306 182.534C643.333 182.631 643.34 182.732 643.328 182.831C643.011 185.428 642.574 188.07 642.031 190.713C641.986 190.88 641.885 191.027 641.745 191.129C641.605 191.231 641.434 191.281 641.262 191.272L641.277 191.287ZM643.011 178.739C642.912 178.733 642.815 178.708 642.726 178.664C642.636 178.621 642.557 178.56 642.491 178.486C642.425 178.412 642.374 178.325 642.342 178.231C642.31 178.137 642.296 178.038 642.302 177.938C642.423 176.187 642.468 174.435 642.468 172.729V171.657C642.466 171.558 642.484 171.459 642.52 171.367C642.556 171.274 642.61 171.19 642.678 171.118C642.747 171.047 642.829 170.99 642.92 170.95C643.01 170.91 643.108 170.889 643.207 170.887C643.405 170.89 643.594 170.968 643.737 171.106C643.879 171.243 643.965 171.429 643.976 171.627V172.714C643.976 174.465 643.976 176.247 643.81 178.029C643.805 178.13 643.779 178.228 643.735 178.318C643.69 178.409 643.628 178.49 643.552 178.556C643.477 178.622 643.388 178.672 643.293 178.704C643.197 178.735 643.096 178.747 642.996 178.739H643.011ZM642.649 164.499C642.464 164.501 642.285 164.434 642.146 164.311C642.006 164.189 641.917 164.019 641.895 163.835C641.585 161.241 641.137 158.665 640.553 156.119C640.531 156.02 640.529 155.917 640.547 155.817C640.565 155.717 640.602 155.622 640.656 155.536C640.711 155.451 640.782 155.377 640.865 155.319C640.948 155.261 641.042 155.22 641.141 155.198C641.24 155.176 641.342 155.174 641.442 155.192C641.542 155.209 641.637 155.247 641.723 155.301C641.808 155.356 641.882 155.427 641.94 155.51C641.998 155.594 642.039 155.688 642.061 155.787C642.66 158.387 643.118 161.019 643.433 163.669C643.446 163.768 643.439 163.869 643.412 163.965C643.385 164.062 643.34 164.152 643.278 164.231C643.216 164.309 643.14 164.375 643.052 164.424C642.965 164.472 642.869 164.503 642.77 164.514H642.679L642.649 164.499ZM640.085 152.102C639.922 152.102 639.764 152.049 639.633 151.951C639.503 151.853 639.407 151.715 639.362 151.559C638.758 149.565 638.065 147.572 637.296 145.639C637.259 145.547 637.241 145.449 637.242 145.349C637.244 145.25 637.265 145.152 637.304 145.061C637.343 144.97 637.4 144.887 637.471 144.818C637.542 144.749 637.626 144.695 637.718 144.658C637.81 144.621 637.908 144.603 638.008 144.604C638.107 144.606 638.204 144.627 638.295 144.666C638.386 144.705 638.469 144.762 638.538 144.833C638.607 144.904 638.662 144.989 638.698 145.081C639.482 147.059 640.206 149.082 640.809 151.121C640.866 151.311 640.845 151.516 640.752 151.691C640.659 151.866 640.501 151.998 640.312 152.057L640.085 152.102ZM634.657 138.92C634.519 138.919 634.385 138.88 634.268 138.808C634.151 138.737 634.056 138.634 633.993 138.512C632.787 136.232 631.445 133.982 629.997 131.778C629.908 131.612 629.884 131.419 629.93 131.236C629.976 131.054 630.088 130.895 630.245 130.791C630.402 130.687 630.591 130.646 630.777 130.675C630.963 130.703 631.131 130.801 631.249 130.947C632.757 133.182 634.099 135.477 635.32 137.818C635.367 137.906 635.397 138.002 635.406 138.102C635.416 138.201 635.406 138.302 635.376 138.397C635.347 138.493 635.299 138.582 635.235 138.658C635.171 138.735 635.092 138.798 635.004 138.844C634.896 138.897 634.777 138.923 634.657 138.92V138.92ZM627.886 128.229C627.769 128.229 627.653 128.202 627.549 128.149C627.444 128.097 627.353 128.021 627.283 127.927C626.061 126.281 624.734 124.635 623.347 123.035C623.217 122.883 623.152 122.685 623.168 122.485C623.184 122.286 623.278 122.1 623.43 121.97C623.582 121.84 623.779 121.776 623.978 121.791C624.178 121.807 624.363 121.901 624.493 122.053C625.895 123.684 627.237 125.36 628.489 127.036C628.577 127.148 628.632 127.283 628.647 127.425C628.662 127.567 628.637 127.711 628.574 127.839C628.51 127.967 628.412 128.074 628.29 128.149C628.169 128.223 628.028 128.262 627.886 128.259V128.229ZM618.521 117.508C618.322 117.505 618.133 117.424 617.993 117.282C616.184 115.485 614.238 113.688 612.218 111.951C612.142 111.887 612.081 111.808 612.036 111.72C611.991 111.631 611.964 111.535 611.956 111.436C611.948 111.337 611.96 111.238 611.991 111.144C612.021 111.049 612.07 110.962 612.135 110.887C612.199 110.811 612.278 110.75 612.366 110.705C612.454 110.66 612.55 110.632 612.649 110.625C612.748 110.617 612.847 110.629 612.941 110.66C613.035 110.69 613.123 110.739 613.198 110.804C615.249 112.57 617.209 114.382 619.049 116.21C619.163 116.313 619.243 116.449 619.277 116.6C619.311 116.75 619.299 116.907 619.242 117.05C619.184 117.193 619.084 117.315 618.955 117.4C618.827 117.485 618.675 117.528 618.521 117.523V117.508ZM609.051 109.113C608.881 109.112 608.716 109.053 608.583 108.946C606.97 107.663 605.281 106.379 603.562 105.141C603.4 105.023 603.291 104.845 603.26 104.647C603.229 104.449 603.278 104.246 603.396 104.084C603.514 103.922 603.691 103.813 603.889 103.782C604.087 103.751 604.289 103.8 604.451 103.918C606.186 105.171 607.89 106.47 609.518 107.769C609.646 107.864 609.74 107.998 609.787 108.151C609.834 108.304 609.831 108.468 609.779 108.619C609.727 108.77 609.629 108.9 609.498 108.992C609.367 109.083 609.21 109.131 609.051 109.128V109.113ZM597.469 100.823C597.325 100.822 597.184 100.78 597.062 100.702C594.906 99.3126 592.644 97.9234 590.337 96.5946C590.25 96.5451 590.175 96.479 590.114 96.4002C590.054 96.3214 590.009 96.2314 589.983 96.1353C589.957 96.0393 589.951 95.939 589.963 95.8404C589.976 95.7417 590.008 95.6465 590.058 95.5603C590.107 95.474 590.173 95.3984 590.252 95.3376C590.331 95.2769 590.42 95.2323 590.516 95.2064C590.612 95.1804 590.712 95.1737 590.811 95.1865C590.909 95.1993 591.004 95.2313 591.091 95.2809C593.413 96.6399 595.69 98.0291 597.862 99.4334C598.003 99.5175 598.113 99.6456 598.175 99.7983C598.237 99.9509 598.248 100.12 598.205 100.279C598.162 100.438 598.069 100.579 597.939 100.68C597.809 100.781 597.649 100.836 597.485 100.838L597.469 100.823Z" fill="#404B7C"/>
<path d="M586.522 94.3448C586.395 94.3454 586.271 94.3143 586.16 94.2542L583.506 92.8348C583.406 92.7969 583.316 92.7383 583.24 92.6629C583.165 92.5874 583.107 92.4969 583.069 92.3971C583.031 92.2974 583.015 92.1908 583.021 92.0843C583.027 91.9778 583.056 91.8738 583.105 91.7793C583.155 91.6847 583.224 91.6017 583.307 91.5357C583.391 91.4698 583.488 91.4223 583.591 91.3965C583.694 91.3706 583.802 91.3671 583.907 91.3859C584.012 91.4048 584.111 91.4457 584.199 91.506L586.869 92.9405C587.008 93.0231 587.118 93.1486 587.18 93.2984C587.243 93.4482 587.256 93.6142 587.217 93.7719C587.178 93.9297 587.089 94.0706 586.964 94.1738C586.839 94.277 586.684 94.337 586.522 94.3448V94.3448Z" fill="#404B7C"/>
<path d="M619.347 247.047C619.444 242.169 615.574 238.135 610.702 238.037C605.829 237.939 601.801 241.815 601.703 246.694C601.606 251.572 605.477 255.606 610.349 255.704C615.221 255.802 619.249 251.926 619.347 247.047Z" fill="#E5231B"/>
<path d="M552.123 426.067C552.233 421.19 548.374 417.146 543.503 417.036C538.633 416.925 534.594 420.789 534.484 425.666C534.373 430.544 538.232 434.587 543.103 434.698C547.974 434.809 552.012 430.945 552.123 426.067Z" fill="#E5231B"/>
<path d="M583.867 145.035C612.742 145.035 636.15 121.597 636.15 92.6837C636.15 63.7707 612.742 40.332 583.867 40.332C554.993 40.332 531.585 63.7707 531.585 92.6837C531.585 121.597 554.993 145.035 583.867 145.035Z" fill="#A5CEFF"/>
<path d="M583.868 134.707C607.046 134.707 625.835 115.893 625.835 92.684C625.835 69.4751 607.046 50.6606 583.868 50.6606C560.689 50.6606 541.9 69.4751 541.9 92.684C541.9 115.893 560.689 134.707 583.868 134.707Z" fill="#404B7C"/>
<path d="M583.868 95.6433C585.5 95.6433 586.823 94.3183 586.823 92.6837C586.823 91.0492 585.5 89.7241 583.868 89.7241C582.235 89.7241 580.912 91.0492 580.912 92.6837C580.912 94.3183 582.235 95.6433 583.868 95.6433Z" fill="white"/>
<path d="M585.753 54.9341H581.982V64.2508H585.753V54.9341Z" fill="white"/>
<path d="M611.867 67.3397L609.201 64.6704L602.622 71.2583L605.288 73.9277L611.867 67.3397Z" fill="white"/>
<path d="M621.567 94.5714V90.7964H612.263V94.5714H621.567Z" fill="white"/>
<path d="M609.177 120.72L611.843 118.051L605.264 111.463L602.598 114.132L609.177 120.72Z" fill="white"/>
<path d="M581.982 130.434H585.752V121.117H581.982V130.434Z" fill="white"/>
<path d="M555.884 118.043L558.549 120.712L565.128 114.125L562.463 111.455L555.884 118.043Z" fill="white"/>
<path d="M546.167 90.7963V94.5713H555.472V90.7963H546.167Z" fill="white"/>
<path d="M558.541 64.6627L555.875 67.332L562.455 73.9199L565.12 71.2506L558.541 64.6627Z" fill="white"/>
<path d="M584.742 67.9502H582.978L582.088 90.7965C582.078 91.0407 582.117 91.2845 582.203 91.5131C582.29 91.7418 582.422 91.9505 582.591 92.1269C582.76 92.3032 582.963 92.4435 583.187 92.5392C583.412 92.635 583.653 92.6842 583.898 92.684V92.684C584.142 92.6842 584.383 92.635 584.608 92.5392C584.833 92.4435 585.035 92.3032 585.205 92.1269C585.374 91.9505 585.505 91.7418 585.592 91.5131C585.678 91.2845 585.717 91.0407 585.707 90.7965L584.742 67.9502Z" fill="white"/>
<path d="M565.741 109.596L567.008 110.834L583.837 95.2963C584.013 95.1272 584.152 94.9244 584.248 94.7C584.343 94.4755 584.393 94.2341 584.393 93.9902C584.393 93.7462 584.343 93.5048 584.248 93.2804C584.152 93.0559 584.013 92.8531 583.837 92.684V92.684C583.668 92.5082 583.466 92.3683 583.242 92.2727C583.017 92.1772 582.776 92.1279 582.533 92.1279C582.289 92.1279 582.048 92.1772 581.824 92.2727C581.6 92.3683 581.397 92.5082 581.228 92.684L565.741 109.596Z" fill="white"/>
<path d="M495.031 369.029H427.775C422.411 369.029 418.063 373.383 418.063 378.753V472.932C418.063 478.303 422.411 482.656 427.775 482.656H495.031C500.395 482.656 504.743 478.303 504.743 472.932V378.753C504.743 373.383 500.395 369.029 495.031 369.029Z" fill="#E5231B"/>
<path d="M491.638 383.751H454.964C453.923 383.751 453.079 384.597 453.079 385.639C453.079 386.681 453.923 387.526 454.964 387.526H491.638C492.679 387.526 493.523 386.681 493.523 385.639C493.523 384.597 492.679 383.751 491.638 383.751Z" fill="white"/>
<path d="M440.155 377.998H433.655C431.232 377.998 429.267 379.965 429.267 382.392V388.9C429.267 391.327 431.232 393.294 433.655 393.294H440.155C442.578 393.294 444.543 391.327 444.543 388.9V382.392C444.543 379.965 442.578 377.998 440.155 377.998Z" fill="white"/>
<path d="M433.611 382.151L431.243 384.506L437.094 390.365L451.043 378.753L437.848 386.681L433.611 382.151Z" fill="#404B7C"/>
<path d="M491.638 410.554H454.964C453.923 410.554 453.079 411.399 453.079 412.442C453.079 413.484 453.923 414.329 454.964 414.329H491.638C492.679 414.329 493.523 413.484 493.523 412.442C493.523 411.399 492.679 410.554 491.638 410.554Z" fill="white"/>
<path d="M440.155 404.801H433.655C431.232 404.801 429.267 406.768 429.267 409.195V415.703C429.267 418.13 431.232 420.097 433.655 420.097H440.155C442.578 420.097 444.543 418.13 444.543 415.703V409.195C444.543 406.768 442.578 404.801 440.155 404.801Z" fill="white"/>
<path d="M491.638 437.356H454.964C453.923 437.356 453.079 438.202 453.079 439.244C453.079 440.286 453.923 441.132 454.964 441.132H491.638C492.679 441.132 493.523 440.286 493.523 439.244C493.523 438.202 492.679 437.356 491.638 437.356Z" fill="white"/>
<path d="M440.155 431.603H433.655C431.232 431.603 429.267 433.57 429.267 435.997V442.505C429.267 444.932 431.232 446.899 433.655 446.899H440.155C442.578 446.899 444.543 444.932 444.543 442.505V435.997C444.543 433.57 442.578 431.603 440.155 431.603Z" fill="white"/>
<path d="M491.638 464.159H454.964C453.923 464.159 453.079 465.004 453.079 466.046C453.079 467.089 453.923 467.934 454.964 467.934H491.638C492.679 467.934 493.523 467.089 493.523 466.046C493.523 465.004 492.679 464.159 491.638 464.159Z" fill="white"/>
<path d="M440.155 458.406H433.655C431.232 458.406 429.267 460.373 429.267 462.8V469.308C429.267 471.735 431.232 473.702 433.655 473.702H440.155C442.578 473.702 444.543 471.735 444.543 469.308V462.8C444.543 460.373 442.578 458.406 440.155 458.406Z" fill="white"/>
<path d="M374.316 442.702H328.608C323.878 442.702 320.043 446.542 320.043 451.278V516.495C320.043 521.232 323.878 525.072 328.608 525.072H374.316C379.046 525.072 382.881 521.232 382.881 516.495V451.278C382.881 446.542 379.046 442.702 374.316 442.702Z" fill="#9AB3DA"/>
<path d="M373.516 453.377H346.689C345.998 453.377 345.438 453.939 345.438 454.631V454.857C345.438 455.55 345.998 456.111 346.689 456.111H373.516C374.208 456.111 374.768 455.55 374.768 454.857V454.631C374.768 453.939 374.208 453.377 373.516 453.377Z" fill="white"/>
<path d="M336.013 449.21H331.398C329.616 449.21 328.171 450.657 328.171 452.441V457.062C328.171 458.847 329.616 460.293 331.398 460.293H336.013C337.795 460.293 339.24 458.847 339.24 457.062V452.441C339.24 450.657 337.795 449.21 336.013 449.21Z" fill="white"/>
<path d="M373.516 472.811H346.689C345.998 472.811 345.438 473.372 345.438 474.064V474.291C345.438 474.983 345.998 475.544 346.689 475.544H373.516C374.208 475.544 374.768 474.983 374.768 474.291V474.064C374.768 473.372 374.208 472.811 373.516 472.811Z" fill="white"/>
<path d="M336.013 468.628H331.398C329.616 468.628 328.171 470.075 328.171 471.86V476.48C328.171 478.265 329.616 479.712 331.398 479.712H336.013C337.795 479.712 339.24 478.265 339.24 476.48V471.86C339.24 470.075 337.795 468.628 336.013 468.628Z" fill="white"/>
<path d="M373.516 492.245H346.689C345.998 492.245 345.438 492.806 345.438 493.498V493.725C345.438 494.417 345.998 494.978 346.689 494.978H373.516C374.208 494.978 374.768 494.417 374.768 493.725V493.498C374.768 492.806 374.208 492.245 373.516 492.245Z" fill="white"/>
<path d="M336.013 488.062H331.398C329.616 488.062 328.171 489.509 328.171 491.293V495.914C328.171 497.699 329.616 499.145 331.398 499.145H336.013C337.795 499.145 339.24 497.699 339.24 495.914V491.293C339.24 489.509 337.795 488.062 336.013 488.062Z" fill="white"/>
<path d="M373.516 511.664H346.689C345.998 511.664 345.438 512.225 345.438 512.917V513.143C345.438 513.836 345.998 514.397 346.689 514.397H373.516C374.208 514.397 374.768 513.836 374.768 513.143V512.917C374.768 512.225 374.208 511.664 373.516 511.664Z" fill="white"/>
<path d="M336.013 507.496H331.398C329.616 507.496 328.171 508.942 328.171 510.727V515.348C328.171 517.132 329.616 518.579 331.398 518.579H336.013C337.795 518.579 339.24 517.132 339.24 515.348V510.727C339.24 508.942 337.795 507.496 336.013 507.496Z" fill="white"/>
<path d="M156.953 122.461C160.001 122.461 162.472 119.987 162.472 116.934C162.472 113.882 160.001 111.408 156.953 111.408C153.905 111.408 151.434 113.882 151.434 116.934C151.434 119.987 153.905 122.461 156.953 122.461Z" fill="#A5CEFF"/>
<path d="M136.112 127.973C137.62 127.973 138.842 126.749 138.842 125.239C138.842 123.73 137.62 122.506 136.112 122.506C134.605 122.506 133.383 123.73 133.383 125.239C133.383 126.749 134.605 127.973 136.112 127.973Z" fill="#A5CEFF"/>
<path d="M627.81 470.138C632.516 470.138 636.331 466.319 636.331 461.607C636.331 456.895 632.516 453.075 627.81 453.075C623.105 453.075 619.29 456.895 619.29 461.607C619.29 466.319 623.105 470.138 627.81 470.138Z" fill="#A5CEFF"/>
<path d="M604.768 455.129C607.1 455.129 608.991 453.236 608.991 450.901C608.991 448.566 607.1 446.673 604.768 446.673C602.436 446.673 600.546 448.566 600.546 450.901C600.546 453.236 602.436 455.129 604.768 455.129Z" fill="#A5CEFF"/>
<path d="M360.834 612.411C365.54 612.411 369.354 608.591 369.354 603.879C369.354 599.167 365.54 595.348 360.834 595.348C356.129 595.348 352.314 599.167 352.314 603.879C352.314 608.591 356.129 612.411 360.834 612.411Z" fill="#A5CEFF"/>
<path d="M337.792 597.386C340.124 597.386 342.014 595.493 342.014 593.158C342.014 590.823 340.124 588.93 337.792 588.93C335.46 588.93 333.569 590.823 333.569 593.158C333.569 595.493 335.46 597.386 337.792 597.386Z" fill="#A5CEFF"/>
<path d="M177.703 218.406C158.988 221.2 141.511 286.613 135.856 304.733C130.201 322.853 133.971 363.366 133.971 363.366C133.971 363.366 148.674 370.539 155.083 362.611C155.083 362.611 161.115 323.23 168.278 303.223C175.441 283.215 185.997 267.36 191.275 248.485C196.553 229.61 192.029 216.262 177.703 218.406Z" fill="#E5231B"/>
<path d="M128.889 362.294L129.688 378.331C134.446 381.365 140.14 382.572 145.718 381.728C155.324 380.414 158.717 375.884 158.717 375.884L158.913 361.162C158.913 361.162 146.985 353.793 128.889 362.294Z" fill="#9AB3DA"/>
<path d="M119.901 348.01L116.629 398.096L169.665 381.607L174.446 332.155L119.901 348.01Z" fill="#9AB3DA"/>
<path d="M116.629 398.096L111.607 396.45L114.879 346.379L119.901 348.01L116.629 398.096Z" fill="#404B7C"/>
<path d="M174.445 332.155L169.409 330.524L114.879 346.379L119.901 348.01L174.445 332.155Z" fill="#A5CEFF"/>
<path d="M125.963 395.046C125.963 395.046 126.25 399.772 129.824 401.086C130.883 401.47 132.013 401.618 133.135 401.522C134.257 401.425 135.345 401.086 136.323 400.527C137.531 400.889 138.805 400.967 140.048 400.755C141.29 400.543 142.467 400.046 143.486 399.304C143.486 399.304 147.452 400.633 149.428 398.081C149.428 398.081 154.329 399.214 155.837 394.684C157.345 390.154 157.722 383.736 155.746 382.317C153.771 380.897 152.399 384.068 152.399 384.068C152.128 383.664 151.764 383.332 151.338 383.099C150.911 382.866 150.435 382.74 149.949 382.731C149.463 382.722 148.983 382.831 148.548 383.048C148.113 383.265 147.738 383.584 147.452 383.978C147.452 383.978 144.678 381.29 141.752 384.778C141.752 384.778 139.912 382.136 137.56 383.842C135.207 385.548 133.926 392.268 133.654 392.902L125.963 395.046Z" fill="#ECBDBB"/>
<path d="M139.158 397.13C139.037 397.128 138.918 397.097 138.812 397.039C138.637 396.946 138.505 396.788 138.446 396.599C138.387 396.409 138.404 396.204 138.495 396.028C139.898 392.87 140.745 389.493 140.998 386.047C141.01 385.846 141.101 385.659 141.251 385.526C141.401 385.393 141.598 385.325 141.797 385.337C141.997 385.349 142.184 385.44 142.317 385.59C142.45 385.74 142.518 385.937 142.506 386.137C142.247 389.791 141.343 393.369 139.837 396.707C139.775 396.834 139.678 396.941 139.558 397.016C139.438 397.091 139.3 397.13 139.158 397.13V397.13Z" fill="#404B7C"/>
<path d="M144.768 396.783C144.659 396.807 144.545 396.807 144.436 396.783C144.347 396.739 144.267 396.679 144.201 396.604C144.136 396.53 144.085 396.443 144.053 396.349C144.021 396.255 144.007 396.156 144.014 396.056C144.02 395.957 144.046 395.86 144.089 395.771C145.451 392.606 146.287 389.24 146.563 385.805C146.578 385.606 146.67 385.421 146.819 385.289C146.968 385.156 147.163 385.087 147.362 385.095C147.461 385.101 147.558 385.127 147.647 385.17C147.736 385.213 147.816 385.274 147.882 385.348C147.948 385.423 147.999 385.509 148.031 385.603C148.063 385.697 148.077 385.797 148.071 385.896C147.795 389.542 146.908 393.115 145.447 396.466C145.371 396.573 145.268 396.659 145.149 396.715C145.03 396.77 144.899 396.794 144.768 396.783Z" fill="#404B7C"/>
<path d="M150.227 395.892C150.094 395.894 149.962 395.86 149.846 395.795C149.73 395.729 149.633 395.634 149.566 395.519C149.499 395.404 149.463 395.273 149.462 395.14C149.462 395.006 149.497 394.875 149.563 394.759C151.162 391.921 151.539 385.896 151.539 385.835C151.554 385.636 151.646 385.451 151.795 385.319C151.945 385.187 152.139 385.117 152.338 385.126C152.437 385.131 152.534 385.157 152.624 385.2C152.713 385.244 152.793 385.304 152.859 385.378C152.924 385.453 152.975 385.539 153.007 385.633C153.04 385.727 153.053 385.827 153.047 385.926C153.047 386.183 152.64 392.359 150.875 395.499C150.812 395.616 150.718 395.714 150.604 395.783C150.49 395.852 150.36 395.89 150.227 395.892Z" fill="#404B7C"/>
<path d="M140.259 651.021L136.384 665.019L131.468 682.732H117.639L119.358 663.313L120.414 651.52L140.259 651.021Z" fill="#ECBDBB"/>
<path d="M120.414 651.52L140.259 651.021L136.384 665.019L119.358 663.313L120.414 651.52Z" fill="#404B7C"/>
<path d="M109.089 707.39C108.968 706.891 111.23 689.27 116.508 678.443C122.225 679.088 127.985 679.255 133.729 678.941C133.729 678.941 147.935 689.768 160.496 694.539C173.058 699.311 175.833 701.214 175.456 707.374H109.104L109.089 707.39Z" fill="#404B7C"/>
<path d="M155.083 376.443C155.083 376.443 115.875 484.408 99.2866 658.058H169.409C169.409 658.058 181.473 530.463 210.125 445.903L224.074 382.861C231.749 332.2 174.445 323.593 155.083 376.443Z" fill="#9AB3DA"/>
<path d="M168.67 424.582C166.393 424.582 155.837 415.869 154.781 413.574C153.725 411.279 157.797 394.593 158.958 389.489C159.005 389.302 159.122 389.139 159.284 389.035C159.447 388.932 159.643 388.894 159.833 388.931C169.806 390.684 179.879 391.814 189.993 392.313C190.1 392.318 190.206 392.346 190.302 392.395C190.398 392.443 190.483 392.513 190.55 392.597C190.617 392.681 190.665 392.779 190.691 392.884C190.718 392.989 190.721 393.098 190.702 393.204C189.993 396.964 186.464 415.854 186.072 416.745C185.484 418.376 170.117 424.582 168.67 424.582ZM160.27 390.531C157.857 400.678 155.746 411.671 156.168 412.955C157.028 414.842 167.086 422.981 168.685 423.072C170.283 423.162 183.373 417.334 184.79 416.096C185.182 414.706 187.52 402.415 189.148 393.778C179.462 393.265 169.814 392.181 160.255 390.531H160.27Z" fill="#404B7C"/>
<path d="M153.575 652.018H153.484C153.287 651.995 153.106 651.895 152.982 651.74C152.857 651.584 152.8 651.386 152.821 651.188C164.01 556.344 192.511 447.941 192.798 446.854C192.85 446.654 192.979 446.483 193.157 446.378C193.335 446.273 193.548 446.244 193.748 446.296C193.948 446.348 194.119 446.477 194.224 446.656C194.328 446.834 194.358 447.047 194.306 447.247C194.019 448.334 165.533 556.631 154.359 651.369C154.333 651.555 154.238 651.726 154.093 651.846C153.948 651.966 153.763 652.027 153.575 652.018V652.018Z" fill="#404B7C"/>
<path d="M251.927 651.021L250.328 666.016L248.534 682.732H234.72L233.122 663.343L232.157 651.52L251.927 651.021Z" fill="#ECBDBB"/>
<path d="M251.927 651.021L250.328 666.016L233.122 663.343L232.157 651.52L251.927 651.021Z" fill="#404B7C"/>
<path d="M226.2 707.39C226.079 706.891 228.341 689.27 233.619 678.443C239.336 679.088 245.096 679.255 250.841 678.941C250.841 678.941 265.046 689.768 277.608 694.539C290.169 699.311 292.944 701.214 292.567 707.374H226.2V707.39Z" fill="#404B7C"/>
<path d="M198.061 384.763C198.061 384.763 187.761 423.827 201.71 460.263C204.922 527.82 209.25 621.667 210.125 658.073H289.385C289.385 658.073 292.959 470.999 274.501 381.426C256.043 291.853 191.275 325.118 198.061 384.763Z" fill="#9AB3DA"/>
<path d="M201.71 461.003C201.553 461.002 201.401 460.952 201.274 460.859C201.147 460.767 201.052 460.638 201.001 460.489C192.542 434.985 191.607 415.869 197.307 384.733C196.938 381.48 196.777 378.206 196.824 374.933C196.824 374.732 196.904 374.54 197.045 374.399C197.186 374.257 197.378 374.178 197.578 374.178C197.778 374.178 197.97 374.257 198.111 374.399C198.253 374.54 198.332 374.732 198.332 374.933C198.284 378.181 198.446 381.429 198.815 384.657C198.826 384.732 198.826 384.809 198.815 384.884C193.145 415.793 194.065 434.714 202.434 459.991C202.496 460.181 202.48 460.388 202.389 460.567C202.299 460.745 202.141 460.88 201.951 460.942L201.71 461.003Z" fill="#404B7C"/>
<path d="M241.627 427.043C238.611 427.043 225.703 421.939 224.195 420.067C222.687 418.194 221.284 399.41 220.877 393.672C220.868 393.564 220.882 393.456 220.919 393.355C220.955 393.253 221.013 393.16 221.088 393.083C221.161 393.001 221.253 392.938 221.355 392.899C221.457 392.86 221.567 392.845 221.676 392.856C221.842 392.856 238.687 393.823 253.103 390.697C253.209 390.675 253.318 390.677 253.424 390.701C253.529 390.725 253.628 390.772 253.714 390.837C253.8 390.903 253.87 390.987 253.921 391.083C253.972 391.178 254.001 391.284 254.008 391.392C254.264 395.514 255.516 416.095 255.365 417.062C255.139 418.783 243.301 426.62 241.989 426.937C241.873 426.987 241.752 427.023 241.627 427.043V427.043ZM222.445 394.412C223.275 405.676 224.557 417.938 225.386 419.115C226.577 420.625 239.938 425.895 241.627 425.533C243.316 425.17 252.892 418.224 253.887 416.835C253.887 415.325 253.148 401.826 252.575 392.358C242.637 394.145 232.533 394.833 222.445 394.412V394.412Z" fill="#404B7C"/>
<path d="M220.937 446.16C198.106 444.423 182.694 444.393 182.544 444.393C182.344 444.393 182.152 444.313 182.01 444.172C181.869 444.03 181.79 443.838 181.79 443.638C181.79 443.438 181.869 443.246 182.01 443.104C182.152 442.962 182.344 442.883 182.544 442.883C182.694 442.883 198.166 442.883 221.058 444.65C221.157 444.657 221.253 444.685 221.342 444.73C221.43 444.775 221.509 444.838 221.573 444.913C221.638 444.989 221.687 445.077 221.717 445.171C221.748 445.266 221.759 445.366 221.752 445.465C221.744 445.564 221.716 445.661 221.671 445.749C221.626 445.838 221.564 445.917 221.488 445.981C221.412 446.046 221.325 446.095 221.23 446.125C221.136 446.156 221.036 446.167 220.937 446.16V446.16Z" fill="#404B7C"/>
<path d="M270.445 649.753H270.37C270.27 649.744 270.174 649.715 270.086 649.668C269.998 649.621 269.92 649.557 269.857 649.48C269.794 649.402 269.747 649.313 269.718 649.218C269.69 649.122 269.681 649.022 269.691 648.923C280.126 548.236 264.564 389.067 264.413 387.466C264.393 387.266 264.453 387.066 264.58 386.91C264.708 386.754 264.892 386.656 265.092 386.636C265.292 386.616 265.491 386.676 265.647 386.803C265.802 386.931 265.901 387.115 265.921 387.315C266.072 388.916 281.634 548.236 271.199 649.074C271.18 649.261 271.093 649.434 270.953 649.559C270.814 649.685 270.633 649.754 270.445 649.753Z" fill="#404B7C"/>
<path d="M219.308 217.017C219.308 217.017 222.581 208.456 223.953 205.572C214.457 203.887 204.771 203.546 195.18 204.56L199.704 217.017H219.308Z" fill="#E5231B"/>
<path d="M177.702 218.406C177.702 218.406 207.606 208.093 243.044 221.17C243.044 221.17 273.46 313.778 280.246 380.218C280.246 380.218 216.533 395.318 147.919 380.973C147.919 380.973 153.574 257.153 177.702 218.406Z" fill="#E5231B"/>
<path d="M219.912 216.217H219.806C211.544 215.133 203.185 215.007 194.894 215.839C194.795 215.849 194.695 215.839 194.6 215.811C194.505 215.782 194.416 215.735 194.339 215.671C194.262 215.608 194.198 215.531 194.151 215.443C194.104 215.355 194.075 215.259 194.065 215.16C194.055 215.061 194.065 214.96 194.093 214.865C194.122 214.77 194.169 214.681 194.232 214.604C194.295 214.527 194.373 214.463 194.461 214.416C194.548 214.369 194.644 214.339 194.743 214.329C203.15 213.484 211.625 213.611 220.002 214.707C220.202 214.719 220.389 214.81 220.522 214.96C220.655 215.11 220.723 215.307 220.711 215.507C220.699 215.707 220.608 215.895 220.458 216.028C220.308 216.161 220.112 216.229 219.912 216.217V216.217Z" fill="#ECBDBB"/>
<path d="M152.067 329.784H151.992C151.794 329.761 151.613 329.661 151.489 329.506C151.365 329.35 151.307 329.152 151.328 328.954C155.4 290.66 163.181 240.332 177.085 218.014C177.191 217.844 177.36 217.723 177.555 217.677C177.75 217.632 177.955 217.666 178.125 217.772C178.295 217.878 178.416 218.048 178.461 218.243C178.507 218.439 178.472 218.644 178.366 218.814C164.598 240.875 156.832 290.977 152.821 329.18C152.786 329.353 152.691 329.508 152.553 329.619C152.415 329.729 152.243 329.788 152.067 329.784V329.784Z" fill="#ECBDBB"/>
<path d="M269.63 375.688C269.445 375.689 269.266 375.622 269.127 375.5C268.988 375.377 268.898 375.208 268.876 375.024C263.975 335.522 251.745 292.88 251.625 292.457C251.569 292.257 251.594 292.042 251.696 291.861C251.798 291.68 251.968 291.547 252.168 291.49C252.368 291.434 252.582 291.46 252.763 291.562C252.944 291.664 253.077 291.834 253.133 292.034C253.253 292.457 265.513 335.22 270.429 374.827C270.455 375.026 270.401 375.226 270.28 375.384C270.158 375.543 269.979 375.647 269.781 375.673H269.63V375.688Z" fill="#ECBDBB"/>
<path d="M306.124 253.756L313.287 240.921C313.287 240.921 310.271 225.443 310.15 223.057C310.03 220.671 317.057 213.121 317.811 212.487C318.565 211.853 326.361 211.732 326.361 211.732C327.597 211.202 328.94 210.969 330.282 211.053C330.71 211.065 331.117 211.243 331.415 211.551C331.714 211.858 331.881 212.27 331.881 212.699C331.881 212.699 335.228 211.808 335.319 214.299C335.614 214.259 335.913 214.259 336.209 214.299C336.559 214.379 336.88 214.559 337.133 214.815C337.385 215.072 337.559 215.396 337.633 215.748C337.708 216.101 337.68 216.468 337.553 216.805C337.426 217.142 337.206 217.436 336.917 217.651C335.228 218.92 332.167 221.215 332.031 221.457C331.896 221.698 325.819 230.985 325.713 231.362C325.607 231.74 324.446 242.264 323.828 244.394C323.21 246.523 317.072 261.23 317.072 261.23L306.124 253.756Z" fill="#ECBDBB"/>
<path d="M315.172 219.977C315.015 219.979 314.861 219.932 314.732 219.843C314.603 219.753 314.505 219.625 314.452 219.477C314.399 219.329 314.393 219.168 314.436 219.017C314.478 218.866 314.567 218.731 314.689 218.633C314.931 218.421 320.812 213.589 324.145 212.321C324.238 212.286 324.337 212.27 324.436 212.274C324.535 212.278 324.633 212.301 324.723 212.342C324.813 212.383 324.895 212.442 324.962 212.515C325.03 212.588 325.083 212.673 325.117 212.766C325.152 212.86 325.168 212.959 325.164 213.058C325.161 213.158 325.138 213.255 325.096 213.346C325.055 213.436 324.996 213.518 324.924 213.585C324.851 213.653 324.765 213.706 324.672 213.74C321.581 214.903 315.715 219.78 315.624 219.78C315.5 219.895 315.341 219.964 315.172 219.977Z" fill="#404B7C"/>
<path d="M319.078 221.487C318.919 221.487 318.765 221.437 318.637 221.344C318.508 221.252 318.412 221.121 318.362 220.971C318.312 220.82 318.311 220.658 318.358 220.507C318.405 220.355 318.499 220.223 318.625 220.128C322.017 217.562 325.59 215.245 329.317 213.197C329.408 213.149 329.508 213.12 329.611 213.112C329.713 213.104 329.816 213.117 329.914 213.151C330.011 213.184 330.101 213.238 330.177 213.307C330.253 213.376 330.314 213.461 330.356 213.555C330.398 213.649 330.421 213.75 330.422 213.853C330.424 213.956 330.404 214.059 330.365 214.154C330.326 214.249 330.267 214.335 330.193 214.407C330.119 214.479 330.032 214.535 329.935 214.571C326.309 216.58 322.827 218.841 319.515 221.336C319.389 221.431 319.236 221.484 319.078 221.487Z" fill="#404B7C"/>
<path d="M325.728 221.441C325.573 221.443 325.422 221.397 325.294 221.309C325.166 221.222 325.069 221.097 325.014 220.952C324.96 220.806 324.952 220.648 324.99 220.498C325.029 220.348 325.113 220.213 325.23 220.113C327.897 217.841 330.817 215.885 333.931 214.284C334.113 214.2 334.321 214.192 334.509 214.261C334.697 214.33 334.85 214.472 334.934 214.654C335.018 214.836 335.026 215.044 334.957 215.233C334.888 215.421 334.747 215.574 334.565 215.658C331.579 217.206 328.777 219.085 326.211 221.26C326.076 221.375 325.905 221.44 325.728 221.441Z" fill="#404B7C"/>
<path d="M296.337 267.859C295.96 267.225 294.829 261.698 295.327 260.43C297.841 256.921 300.751 253.714 303.998 250.871C305.385 250.116 320.088 255.522 322.214 266.605C322.214 266.605 318.067 276.164 317.193 276.677C316.318 277.19 308.024 276.934 302.987 274.291C300.145 272.908 297.816 270.655 296.337 267.859Z" fill="#9AB3DA"/>
<path d="M299.353 260.686L288.3 273.023C288.3 273.023 262.92 231.996 243.06 221.185C243.06 221.185 236.53 216.911 235.022 240.316C233.514 263.721 241.808 279.576 241.808 279.576C241.808 279.576 274.984 309.776 286.038 311.543C297.091 313.31 306.893 293.68 314.192 272.781C310.648 266.213 306.019 261.668 299.353 260.686Z" fill="#E5231B"/>
<path d="M262.905 298.119C262.735 298.118 262.57 298.06 262.437 297.953C251.595 289.467 241.325 280.195 241.325 280.105C241.258 280.045 241.202 279.973 241.16 279.893C241.069 279.727 232.79 263.586 234.283 240.241C234.796 232.253 235.957 226.56 237.721 223.314C237.817 223.138 237.979 223.007 238.172 222.95C238.364 222.894 238.571 222.916 238.747 223.012C238.923 223.108 239.053 223.27 239.11 223.463C239.167 223.655 239.144 223.862 239.048 224.039C237.39 227.059 236.289 232.57 235.791 240.332C234.784 253.599 237.069 266.909 242.441 279.078C243.542 280.075 253.193 288.772 263.403 296.76C263.533 296.857 263.628 296.994 263.675 297.15C263.721 297.306 263.716 297.473 263.66 297.626C263.604 297.778 263.5 297.909 263.364 297.998C263.228 298.087 263.067 298.129 262.905 298.119Z" fill="#ECBDBB"/>
<path d="M296.654 285.949C296.512 285.949 296.374 285.909 296.254 285.835C296.134 285.76 296.037 285.653 295.975 285.526C293.869 281.768 291.468 278.183 288.797 274.805C288.692 274.647 288.651 274.456 288.68 274.269C288.709 274.082 288.808 273.914 288.956 273.796C289.104 273.678 289.29 273.62 289.479 273.634C289.667 273.647 289.844 273.731 289.973 273.869C292.715 277.322 295.171 280.994 297.317 284.846C297.376 284.961 297.405 285.089 297.401 285.218C297.397 285.347 297.36 285.473 297.293 285.583C297.227 285.694 297.133 285.786 297.021 285.85C296.909 285.913 296.783 285.948 296.654 285.949Z" fill="#ECBDBB"/>
<path d="M217.544 166.553C231.493 166.281 233.001 181.155 228.598 191.966C224.194 202.778 215.146 198.761 209.868 191.332C204.59 183.903 204.847 166.81 217.544 166.553Z" fill="#ECBDBB"/>
<path d="M221.917 184.779L224.752 184.869C225.569 183.05 226.2 181.153 226.637 179.207C227.883 180.691 229.207 182.107 230.603 183.45C230.89 183.45 239.561 175.613 240.119 173.257C240.677 170.902 230.86 154.02 220.304 152.208C209.748 150.396 190.34 163.91 189.39 166.749C188.44 169.588 188.726 178.074 187.882 180.536C187.037 182.997 171.957 185.911 168.655 190.924C165.352 195.938 166.302 203.472 168.474 209.996C170.645 216.519 163.196 219.433 154.525 223.586C145.854 227.738 139.641 246.613 159.622 257.938C179.603 269.263 212.402 253.801 216.745 236.421C220.077 223.087 218.087 217.938 216.081 211.022C214.076 204.107 224.602 209.981 218.449 192.631C215.192 183.435 220.59 180.294 220.59 180.294L221.917 184.779Z" fill="#404B7C"/>
<path d="M222.686 185.504C223.274 184.22 223.548 182.816 223.485 181.405C223.422 179.995 223.024 178.62 222.324 177.395C222 176.721 221.486 176.158 220.846 175.774C220.205 175.39 219.466 175.203 218.72 175.236C214.287 175.613 215.418 185.051 222.068 186.938L222.686 185.504Z" fill="#ECBDBB"/>
<path d="M221.103 184.491H220.967C220.772 184.455 220.599 184.342 220.486 184.178C220.373 184.014 220.329 183.812 220.364 183.616C220.364 183.616 221.133 179.403 218.856 178.527C218.668 178.457 218.516 178.315 218.432 178.132C218.349 177.95 218.341 177.741 218.411 177.553C218.481 177.365 218.623 177.212 218.805 177.129C218.988 177.045 219.196 177.038 219.384 177.108C222.898 178.421 221.948 183.661 221.902 183.887C221.866 184.069 221.765 184.23 221.617 184.342C221.47 184.453 221.287 184.506 221.103 184.491Z" fill="#404B7C"/>
<path d="M218.66 181.955C218.521 181.956 218.385 181.918 218.266 181.846C218.147 181.774 218.051 181.671 217.987 181.548C217.923 181.424 217.894 181.286 217.904 181.147C217.913 181.009 217.961 180.875 218.042 180.762C218.717 179.9 219.654 179.28 220.711 178.995C220.911 178.945 221.122 178.977 221.299 179.083C221.476 179.189 221.603 179.361 221.653 179.562C221.703 179.762 221.672 179.974 221.566 180.151C221.46 180.328 221.288 180.455 221.088 180.505C220.37 180.702 219.732 181.119 219.263 181.698C219.188 181.784 219.095 181.851 218.991 181.896C218.886 181.94 218.773 181.96 218.66 181.955V181.955Z" fill="#404B7C"/>
<path d="M208.375 166.553C212.296 159.909 207.878 147.437 197.819 147.935C195.534 148.063 193.299 148.651 191.247 149.666C189.195 150.681 187.369 152.1 185.879 153.839C184.389 155.578 183.265 157.601 182.575 159.786C181.885 161.971 181.644 164.272 181.865 166.553C182.603 175.87 199.327 181.91 208.375 166.553Z" fill="#404B7C"/>
<path d="M193.974 176.67C193.202 176.669 192.43 176.609 191.667 176.489C191.467 176.459 191.287 176.35 191.167 176.188C191.047 176.025 190.996 175.821 191.026 175.621C191.056 175.42 191.164 175.24 191.327 175.12C191.489 174.999 191.693 174.949 191.893 174.979C197.925 175.93 203.957 172.623 207.727 166.13C208.443 164.744 208.878 163.23 209.007 161.676C209.137 160.121 208.958 158.556 208.481 157.07C208.425 156.87 208.451 156.656 208.553 156.474C208.655 156.293 208.824 156.16 209.024 156.104C209.224 156.048 209.438 156.073 209.619 156.175C209.8 156.277 209.933 156.447 209.989 156.647C210.532 158.34 210.731 160.124 210.576 161.895C210.421 163.666 209.913 165.389 209.084 166.961C205.344 173.182 199.84 176.67 193.974 176.67Z" fill="#9AB3DA"/>
</svg>
